HIERARCHY
ROOT Hips
{
 OFFSET 0.000000 0.000000 0.000000
 CHANNELS 6 Xposition Yposition Zposition Yrotation Xrotation Zrotation
 JOINT Chest
 {
  OFFSET 0.000000 9.303000 0.001900
  CHANNELS 3 Yrotation Xrotation Zrotation
  JOINT Chest2
  {
   OFFSET 0.000000 9.301100 -0.003900
   CHANNELS 3 Yrotation Xrotation Zrotation
   JOINT Chest3
   {
    OFFSET 0.000000 9.262800 0.000000
    CHANNELS 3 Yrotation Xrotation Zrotation
    JOINT Chest4
    {
     OFFSET 0.000000 9.253300 0.000000
     CHANNELS 3 Yrotation Xrotation Zrotation
     JOINT Neck
     {
      OFFSET 0.000000 14.010300 0.000000
      CHANNELS 3 Yrotation Xrotation Zrotation
      JOINT Head
      {
       OFFSET 0.000000 8.657600 -0.008300
       CHANNELS 3 Yrotation Xrotation Zrotation
       End Site
       {
        OFFSET 0.000000 16.540200 -0.004400
       }
      }
     }
     JOINT RightCollar
     {
      OFFSET -2.834100 9.267700 0.000000
      CHANNELS 3 Yrotation Xrotation Zrotation
      JOINT RightShoulder
      {
       OFFSET -13.135200 0.000000 0.000000
       CHANNELS 3 Yrotation Xrotation Zrotation
       JOINT RightElbow
       {
        OFFSET 0.000000 -28.893500 0.000000
        CHANNELS 3 Yrotation Xrotation Zrotation
        JOINT RightWrist
        {
         OFFSET 0.000000 -23.344000 0.000000
         CHANNELS 3 Yrotation Xrotation Zrotation
         End Site
         {
          OFFSET 0.000000 -17.223000 0.000000
         }
        }
       }
      }
     }
     JOINT LeftCollar
     {
      OFFSET 2.834100 9.267700 0.000000
      CHANNELS 3 Yrotation Xrotation Zrotation
      JOINT LeftShoulder
      {
       OFFSET 13.135200 0.000000 0.000000
       CHANNELS 3 Yrotation Xrotation Zrotation
       JOINT LeftElbow
       {
        OFFSET 0.000000 -28.893500 0.000000
        CHANNELS 3 Yrotation Xrotation Zrotation
        JOINT LeftWrist
        {
         OFFSET 0.000000 -23.344000 0.000000
         CHANNELS 3 Yrotation Xrotation Zrotation
         End Site
         {
          OFFSET 0.000000 -17.223000 0.000000
         }
        }
       }
      }
     }
    }
   }
  }
 }
 JOINT RightHip
 {
  OFFSET -7.547200 -0.009500 -0.001000
  CHANNELS 3 Yrotation Xrotation Zrotation
  JOINT RightKnee
  {
   OFFSET 0.000000 -39.762800 0.000900
   CHANNELS 3 Yrotation Xrotation Zrotation
   JOINT RightAnkle
   {
    OFFSET 0.000000 -38.588200 0.001600
    CHANNELS 3 Yrotation Xrotation Zrotation
    JOINT RightToe
    {
     OFFSET 0.000000 -4.693300 10.419700
     CHANNELS 3 Yrotation Xrotation Zrotation
     End Site
     {
      OFFSET 0.000000 -1.379900 5.669300
     }
    }
   }
  }
 }
 JOINT LeftHip
 {
  OFFSET 7.547200 -0.009500 -0.001000
  CHANNELS 3 Yrotation Xrotation Zrotation
  JOINT LeftKnee
  {
   OFFSET 0.000000 -39.762800 0.000900
   CHANNELS 3 Yrotation Xrotation Zrotation
   JOINT LeftAnkle
   {
    OFFSET 0.000000 -38.588200 0.001600
    CHANNELS 3 Yrotation Xrotation Zrotation
    JOINT LeftToe
    {
     OFFSET 0.000000 -4.693300 10.419700
     CHANNELS 3 Yrotation Xrotation Zrotation
     End Site
     {
      OFFSET 0.000000 -1.379900 5.669300
     }
    }
   }
  }
 }
}
MOTION
Frames: 16
Frame Time: 0.008333
5.033324 44.434558 2.993878 165.337073 -12.998788 0.716551 3.985143 8.281860 2.434554 0.194478 0.451657 0.101315 0.338221 0.784180 0.177041 3.441978 7.645215 1.947061 2.788372 16.150998 -3.515892 3.779378 -8.647926 -4.387808 15.299332 -0.228487 -8.114144 0.049277 -37.756585 -32.754779 -104.808165 -79.987529 112.142187 -17.638853 -14.190188 -17.308879 -17.933067 -9.018116 -3.894392 -0.777335 -37.849751 30.837969 50.158648 -41.315032 -68.445138 17.711398 -8.299465 -0.830998 -10.913430 -76.217353 12.987203 -153.534887 81.732450 -154.388692 -11.106340 -28.215310 9.034322 -0.218388 0.100448 0.159992 -9.717316 -71.194891 29.340792 165.807228 69.079912 162.405033 -10.857040 -21.963686 1.871091 -0.027261 -0.800752 0.356161
5.064625 44.447036 2.961604 165.422979 -12.870388 0.730865 3.859790 8.156235 2.340577 0.185633 0.436926 0.095483 0.323156 0.759236 0.166954 3.347722 7.543984 1.870901 3.017131 16.173129 -3.830503 4.107230 -8.601367 -4.789736 15.704841 -0.463591 -8.245012 1.580848 -37.991565 -33.472269 -87.196209 -80.488932 93.476561 -17.634835 -13.731667 -16.450256 -18.121280 -9.190630 -3.625853 -1.734543 -38.454952 31.039220 47.569375 -39.555142 -64.273941 17.453133 -7.909889 -1.237016 -10.992299 -76.332909 13.117850 -153.294273 81.666923 -154.250873 -11.128083 -28.192192 9.044846 -0.233304 0.134333 0.153722 -9.919155 -71.313534 29.512865 165.788180 69.058289 162.359326 -10.911176 -21.776733 1.766031 0.001067 -0.816193 0.360047
5.094218 44.460612 2.936549 165.500969 -12.739294 0.747621 3.757379 8.030058 2.271199 0.151935 0.428841 0.065699 0.308783 0.735322 0.157148 3.255989 7.445275 1.794793 3.246213 16.191018 -4.130020 4.433593 -8.558514 -5.177630 16.078007 -0.751032 -8.415950 3.057749 -38.225324 -34.133385 -68.704688 -79.877001 74.068642 -17.614483 -13.361308 -15.670624 -18.278752 -9.360888 -3.333035 -2.698427 -39.078612 31.199202 45.200027 -37.528116 -60.286029 17.223166 -7.584784 -1.499001 -11.041390 -76.451641 13.239662 -152.909561 81.603223 -153.973651 -11.153731 -28.171157 9.062681 -0.255924 0.148748 0.163002 -10.106167 -71.437818 29.661416 165.722345 69.040435 162.277295 -10.955972 -21.591957 1.663595 0.019714 -0.824692 0.352769
5.122213 44.475359 2.916194 165.565415 -12.616559 0.771923 3.663061 7.915447 2.197418 0.149315 0.422763 0.062047 0.266871 0.713101 0.119971 3.170086 7.350829 1.717539 3.469234 16.207104 -4.411849 4.750784 -8.517435 -5.546763 16.414090 -1.060628 -8.623367 4.463570 -38.479629 -34.735672 -53.329451 -78.191968 57.919173 -17.593659 -13.085995 -15.023195 -18.423935 -9.532589 -3.025354 -3.674662 -39.718894 31.291310 43.091835 -35.244445 -56.529842 17.043921 -7.379855 -1.501513 -11.039936 -76.563286 13.336174 -152.396875 81.539726 -153.573186 -11.194107 -28.153737 9.086342 -0.302595 0.140405 0.210635 -10.252594 -71.556528 29.768945 165.734990 69.031804 162.269200 -10.939349 -21.415807 1.574362 0.018009 -0.830473 0.330292
5.149700 44.490102 2.904039 165.641779 -12.478667 0.786617 3.537514 7.793988 2.100563 0.127667 0.411505 0.042003 0.302223 0.699954 0.157194 3.052179 7.254899 1.604849 3.684242 16.223685 -4.675014 5.056115 -8.475908 -5.895205 16.711605 -1.358175 -8.865782 5.802099 -38.776479 -35.295334 -42.272469 -75.700236 46.218258 -17.595435 -12.909273 -14.516075 -18.572534 -9.715795 -2.712035 -4.627739 -40.366475 31.274971 41.263205 -32.745786 -53.066182 16.970912 -7.333888 -1.114779 -11.091663 -76.688526 13.486852 -151.791019 81.478165 -153.084370 -11.273749 -28.132073 9.173705 -0.316111 0.140361 0.215455 -10.436920 -71.692836 29.890707 165.539911 69.020341 162.082687 -10.993436 -21.237625 1.473824 0.035982 -0.826669 0.311338
5.176846 44.505033 2.897153 165.718116 -12.339807 0.797369 3.409404 7.670246 2.007394 0.111245 0.406407 0.021899 0.287839 0.675140 0.145622 2.993200 7.174040 1.540102 3.891568 16.240776 -4.921627 5.350245 -8.433913 -6.225070 16.973205 -1.643746 -9.139866 7.108058 -39.094327 -35.850134 -34.761613 -72.658982 38.157334 -17.612809 -12.820191 -14.132126 -18.726228 -9.922328 -2.400989 -5.478596 -41.006203 31.152440 39.678427 -30.118262 -49.925284 17.076050 -7.452200 -0.333352 -11.160728 -76.814911 13.663580 -151.143329 81.419086 -152.557237 -11.365294 -28.107367 9.264948 -0.315178 0.163208 0.180737 -10.630748 -71.827737 30.013598 165.323011 69.016690 161.881721 -11.048675 -21.074061 1.376810 0.059895 -0.811828 0.289589
5.201127 44.519929 2.893770 165.802276 -12.203361 0.818686 3.245290 7.576000 1.861490 0.151058 0.376422 0.067930 0.247290 0.658305 0.108334 2.930534 7.097559 1.477515 4.090053 16.256370 -5.157276 5.633179 -8.393548 -6.542075 17.203910 -1.937368 -9.445536 8.422133 -39.388294 -36.440624 -29.756642 -69.240700 32.652969 -17.607223 -12.793513 -13.865077 -18.875767 -10.152557 -2.101230 -6.187095 -41.621052 30.993387 38.297544 -27.442211 -47.103104 17.356789 -7.758025 0.752317 -11.175955 -76.941149 13.777406 -150.501201 81.365026 -152.041852 -11.393816 -28.077354 9.207666 -0.295586 0.187289 0.214606 -10.732346 -71.965271 30.031530 165.132723 69.023022 161.720862 -11.079841 -20.962036 1.296429 0.077490 -0.760173 0.260536
5.226523 44.534554 2.893189 165.862233 -12.075434 0.831791 3.122813 7.483832 1.762442 0.200241 0.346451 0.111960 0.191596 0.655734 0.064282 2.846194 7.025645 1.401357 4.281004 16.268345 -5.386099 5.907284 -8.356960 -6.851038 17.409209 -2.235484 -9.787028 9.777963 -39.644489 -37.088793 -26.498648 -65.549109 28.903372 -17.560322 -12.804140 -13.704618 -19.008512 -10.393772 -1.816498 -6.857210 -42.135940 30.928813 37.211202 -24.774082 -44.621415 17.728713 -8.265124 2.039300 -11.200951 -77.058606 13.928910 -149.861800 81.313803 -151.526084 -11.428305 -28.069683 9.216721 -0.306145 0.209362 0.219943 -10.928417 -72.077437 30.159043 164.970168 69.030595 161.561052 -11.105861 -20.841401 1.227036 0.088886 -0.729250 0.226829
5.249280 44.548476 2.894252 165.911498 -11.953363 0.853932 3.012671 7.397619 1.671681 0.206391 0.330920 0.107970 0.167837 0.645691 0.056257 2.758561 6.956412 1.327852 4.467706 16.275817 -5.608756 6.176348 -8.324973 -7.153463 17.594794 -2.505160 -10.165503 11.201478 -39.881558 -37.806741 -24.546616 -61.647042 26.415026 -17.477716 -12.793173 -13.614565 -19.109329 -10.626875 -1.545511 -7.685422 -42.421325 31.094528 36.599359 -22.198739 -42.524714 18.092843 -8.886201 3.400432 -11.160349 -77.177182 14.027362 -149.273180 81.266535 -151.052634 -11.531566 -28.048055 9.314397 -0.264765 0.217668 0.183216 -11.086552 -72.179725 30.249279 164.841429 69.040067 161.424610 -11.099655 -20.747428 1.175839 0.081474 -0.692241 0.185047
5.268302 44.561148 2.897262 165.945462 -11.829070 0.887388 2.910723 7.320846 1.572857 0.147461 0.337738 0.066901 0.209379 0.612912 0.085423 2.667921 6.884332 1.256128 4.650304 16.277105 -5.824259 6.440144 -8.299586 -7.448141 17.761889 -2.725161 -10.572873 12.716381 -40.116131 -38.608517 -23.642820 -57.571287 24.885297 -17.357017 -12.655271 -13.542889 -19.166765 -10.837057 -1.284963 -8.780022 -42.382785 31.521055 36.545266 -19.832817 -40.818175 18.368255 -9.445521 4.639181 -11.046816 -77.301520 14.061340 -148.781431 81.230127 -150.672319 -11.583843 -28.047109 9.326059 -0.281534 0.235402 0.204669 -11.181177 -72.282328 30.285938 164.782040 69.050940 161.340282 -11.038899 -20.690474 1.151505 0.046143 -0.643706 0.133712
5.285070 44.571449 2.906497 165.996644 -11.674601 0.905469 2.792548 7.226510 1.483773 0.123249 0.336017 0.051045 0.215725 0.587565 0.089676 2.575192 6.806404 1.183702 4.826495 16.269050 -6.028854 6.694925 -8.284818 -7.729975 17.905403 -2.912383 -10.990791 14.315181 -40.340838 -39.473610 -23.533776 -53.374609 24.066661 -17.200478 -12.310450 -13.465594 -19.179074 -11.015771 -1.030825 -10.052444 -42.032996 32.091680 36.945112 -17.767448 -39.476337 18.511418 -9.800494 5.572658 -11.010943 -77.456422 14.155393 -148.333018 81.200178 -150.327337 -11.649728 -28.044820 9.337505 -0.303060 0.250305 0.223660 -11.363858 -72.411610 30.381339 164.585389 69.066950 161.146360 -11.047083 -20.644249 1.094281 0.050627 -0.581671 0.108095
5.299135 44.580380 2.916442 166.035018 -11.518451 0.921060 2.689091 7.141038 1.394773 0.116881 0.325851 0.046723 0.204709 0.570151 0.082208 2.484856 6.724392 1.107657 4.993651 16.247236 -6.217389 6.936314 -8.286213 -7.992196 18.021709 -3.089434 -11.403561 15.923325 -40.523589 -40.331859 -23.931385 -49.181401 23.721174 -17.045470 -11.731638 -13.386054 -19.159627 -11.155387 -0.784006 -11.289929 -41.481830 32.629771 37.576929 -16.055662 -38.486850 18.544071 -9.919189 6.161889 -10.981395 -77.615716 14.260717 -147.936070 81.174881 -150.028210 -11.726745 -28.035555 9.375106 -0.298607 0.258598 0.220822 -11.562006 -72.541186 30.496321 164.418654 69.081646 160.981298 -11.033985 -20.599422 1.039942 0.041059 -0.536626 0.082158
5.313531 44.587671 2.929096 166.072189 -11.350011 0.907798 2.594826 7.050398 1.325301 0.111109 0.315917 0.042223 0.194625 0.553263 0.074396 2.401403 6.642594 1.024521 5.148912 16.205860 -6.384618 7.159521 -8.310956 -8.227975 18.118926 -3.255716 -11.801803 17.463347 -40.590603 -41.128348 -24.621721 -45.186374 23.645170 -16.949141 -10.924345 -13.302341 -19.132496 -11.241009 -0.545749 -12.300430 -40.872482 32.991880 38.209605 -14.744370 -37.824129 18.519836 -9.838159 6.470197 -11.091798 -77.782681 14.499127 -147.581424 81.155902 -149.763935 -11.788957 -28.021529 9.407607 -0.335824 0.266784 0.246945 -11.870553 -72.676836 30.710619 164.216148 69.104103 160.816099 -11.058950 -20.571374 0.946269 0.076696 -0.483102 0.079101
5.320695 44.593925 2.940886 166.102388 -11.177798 0.916205 2.512882 6.964828 1.224330 0.106019 0.306696 0.037455 0.185765 0.537545 0.066058 2.326808 6.564911 0.931672 5.289470 16.140236 -6.525789 7.359748 -8.364859 -8.430827 18.212717 -3.402158 -12.176426 18.932324 -40.418841 -41.863920 -25.507201 -41.613641 23.675083 -16.972857 -9.915639 -13.246837 -19.091441 -11.255926 -0.326930 -13.011327 -40.314123 33.110884 38.662774 -13.879247 -37.430662 18.455140 -9.609734 6.560549 -11.115397 -77.959403 14.639864 -147.263262 81.140281 -149.529808 -11.854849 -28.014598 9.439770 -0.299178 0.267626 0.223268 -12.112103 -72.815532 30.863170 164.091745 69.121771 160.688917 -11.047226 -20.567354 0.944725 0.086473 -0.446725 0.016748
5.320221 44.599520 2.950703 166.122571 -11.007144 0.951783 2.447240 6.887722 1.087806 0.101724 0.298511 0.032449 0.178366 0.523465 0.057254 2.263991 6.494162 0.830308 5.411653 16.049527 -6.639691 7.532287 -8.449347 -8.597934 18.307912 -3.523187 -12.520693 20.356661 -39.917904 -42.560047 -26.520634 -38.645360 23.696190 -17.152306 -8.766171 -13.309850 -19.021820 -11.217011 -0.131601 -13.426215 -39.821674 32.981746 38.847560 -13.477065 -37.262774 18.341985 -9.292026 6.459287 -11.024008 -78.142590 14.655891 -146.985442 81.126156 -149.332615 -11.924859 -28.006332 9.490618 -0.253505 0.264556 0.185001 -12.264825 -72.955495 30.935389 163.989594 69.126410 160.547397 -10.984130 -20.566421 0.938564 0.036554 -0.421154 -0.021816
5.324859 44.604346 2.961892 166.138690 -10.836551 0.934877 2.402253 6.811834 0.997874 0.098408 0.291490 0.027288 0.172714 0.511426 0.048212 2.216354 6.432027 0.722628 5.510559 15.935180 -6.727774 7.671820 -8.563242 -8.729430 18.393862 -3.608966 -12.831446 21.693837 -39.106702 -43.215981 -27.589003 -36.367465 23.697564 -17.421524 -7.584131 -13.562769 -18.963612 -11.102026 0.028917 -13.568558 -39.396370 32.699277 38.772339 -13.504984 -37.318307 18.186156 -8.937555 6.171942 -11.199683 -78.315079 14.938031 -146.703198 81.114277 -149.125414 -12.003280 -27.969569 9.571762 -0.237200 0.253421 0.164046 -12.598889 -73.086976 31.172229 163.893196 69.154214 160.485976 -10.961019 -20.568904 0.832513 0.069473 -0.359443 0.011699
